<svg width="20" height="21" viewBox="0 0 20 21" fill="none" xmlns="http://www.w3.org/2000/svg">
<path d="M7.5 0.5H1.875C0.84125 0.5 0 1.34125 0 2.375V8C0 9.03375 0.84125 9.875 1.875 9.875H7.5C8.53375 9.875 9.375 9.03375 9.375 8V2.375C9.375 1.34125 8.53375 0.5 7.5 0.5ZM8.125 8C8.125 8.34438 7.845 8.625 7.5 8.625H1.875C1.53 8.625 1.25 8.34438 1.25 8V2.375C1.25 2.03062 1.53 1.75 1.875 1.75H7.5C7.845 1.75 8.125 2.03062 8.125 2.375V8ZM18.125 0.5H12.5C11.4663 0.5 10.625 1.34125 10.625 2.375V8C10.625 9.03375 11.4663 9.875 12.5 9.875H18.125C19.1588 9.875 20 9.03375 20 8V2.375C20 1.34125 19.1588 0.5 18.125 0.5ZM18.75 8C18.75 8.34438 18.47 8.625 18.125 8.625H12.5C12.155 8.625 11.875 8.34438 11.875 8V2.375C11.875 2.03062 12.155 1.75 12.5 1.75H18.125C18.47 1.75 18.75 2.03062 18.75 2.375V8ZM18.125 11.125H12.5C11.4663 11.125 10.625 11.9663 10.625 13V18.625C10.625 19.6588 11.4663 20.5 12.5 20.5H18.125C19.1588 20.5 20 19.6588 20 18.625V13C20 11.9663 19.1588 11.125 18.125 11.125ZM18.75 18.625C18.75 18.9694 18.47 19.25 18.125 19.25H12.5C12.155 19.25 11.875 18.9694 11.875 18.625V13C11.875 12.6556 12.155 12.375 12.5 12.375H18.125C18.47 12.375 18.75 12.6556 18.75 13V18.625ZM7.5 11.125H1.875C0.84125 11.125 0 11.9663 0 13V18.625C0 19.6588 0.84125 20.5 1.875 20.5H7.5C8.53375 20.5 9.375 19.6588 9.375 18.625V13C9.375 11.9663 8.53375 11.125 7.5 11.125ZM8.125 18.625C8.125 18.9694 7.845 19.25 7.5 19.25H1.875C1.53 19.25 1.25 18.9694 1.25 18.625V13C1.25 12.6556 1.53 12.375 1.875 12.375H7.5C7.845 12.375 8.125 12.6556 8.125 13V18.625Z" fill="white"/>
</svg>
