<svg width="16" height="15" viewBox="0 0 16 15" fill="none" xmlns="http://www.w3.org/2000/svg">
<path d="M16 4.87457C16 5.99931 15.5839 7.11589 14.7438 7.97166L8.56703 14.2636C8.40701 14.4185 8.20699 14.5 7.99896 14.5C7.79093 14.5 7.59091 14.4185 7.43089 14.2636L1.2541 7.97166C0.450857 7.14858 0 6.03516 0 4.87457C0 3.71399 0.450857 2.60057 1.2541 1.77749C2.06211 0.959265 3.15515 0.5 4.29449 0.5C5.43382 0.5 6.52686 0.959265 7.33487 1.77749L7.99896 2.46211L8.66304 1.77749C9.47106 0.959265 10.5641 0.5 11.7034 0.5C12.8428 0.5 13.9358 0.959265 14.7438 1.77749C15.1436 2.18364 15.4605 2.66644 15.6761 3.19802C15.8917 3.7296 16.0018 4.29942 16 4.87457Z" fill="#E11212"/>
</svg>
