<svg width="20" height="21" viewBox="0 0 20 21" fill="none" xmlns="http://www.w3.org/2000/svg">
<path d="M13.8586 12.7647L13.4284 13.1909C13.4284 13.1909 12.406 14.204 9.61514 11.4386C6.82433 8.6732 7.84676 7.66008 7.84676 7.66008L8.11763 7.39166C8.78498 6.73045 8.84788 5.66886 8.26563 4.89387L7.07474 3.30854C6.35415 2.34933 4.96174 2.22262 4.13581 3.04101L2.65341 4.5099C2.24388 4.9157 1.96945 5.44174 2.00273 6.02529C2.08787 7.51819 2.76567 10.7303 6.54783 14.478C10.5586 18.4522 14.322 18.6102 15.8609 18.4672C16.3477 18.422 16.771 18.175 17.1121 17.8369L18.4538 16.5076C19.3594 15.6102 19.1041 14.0717 17.9453 13.444L16.141 12.4665C15.3801 12.0544 14.4532 12.1754 13.8586 12.7647Z" fill="white"/>
</svg>
