<svg width="20" height="21" viewBox="0 0 20 21" fill="none" xmlns="http://www.w3.org/2000/svg">
<path d="M10.0025 0.5H9.9975C4.48375 0.5 0 4.985 0 10.5C0 12.6875 0.705 14.715 1.90375 16.3612L0.6575 20.0763L4.50125 18.8475C6.0825 19.895 7.96875 20.5 10.0025 20.5C15.5162 20.5 20 16.0138 20 10.5C20 4.98625 15.5162 0.5 10.0025 0.5ZM15.8212 14.6213C15.58 15.3025 14.6225 15.8675 13.8587 16.0325C13.3363 16.1437 12.6537 16.2325 10.3562 15.28C7.4175 14.0625 5.525 11.0763 5.3775 10.8825C5.23625 10.6887 4.19 9.30125 4.19 7.86625C4.19 6.43125 4.91875 5.7325 5.2125 5.4325C5.45375 5.18625 5.8525 5.07375 6.235 5.07375C6.35875 5.07375 6.47 5.08 6.57 5.085C6.86375 5.0975 7.01125 5.115 7.205 5.57875C7.44625 6.16 8.03375 7.595 8.10375 7.7425C8.175 7.89 8.24625 8.09 8.14625 8.28375C8.0525 8.48375 7.97 8.5725 7.8225 8.7425C7.675 8.9125 7.535 9.0425 7.3875 9.225C7.2525 9.38375 7.1 9.55375 7.27 9.8475C7.44 10.135 8.0275 11.0937 8.8925 11.8637C10.0087 12.8575 10.9137 13.175 11.2375 13.31C11.4787 13.41 11.7662 13.3863 11.9425 13.1988C12.1663 12.9575 12.4425 12.5575 12.7238 12.1638C12.9237 11.8813 13.1763 11.8462 13.4412 11.9462C13.7113 12.04 15.14 12.7462 15.4338 12.8925C15.7275 13.04 15.9212 13.11 15.9925 13.2338C16.0625 13.3575 16.0625 13.9388 15.8212 14.6213Z" fill="white"/>
</svg>
