<svg width="60" height="60" viewBox="0 0 60 60" fill="none" xmlns="http://www.w3.org/2000/svg">
<circle cx="30.353" cy="30.3529" r="21.1765" fill="#1A9640"/>
<circle cx="30" cy="30" r="29.5" stroke="#1A9640"/>
<path d="M29.4856 38.8233C29.4258 38.8233 29.3666 38.8113 29.3119 38.788C29.2571 38.7646 29.2079 38.7305 29.1673 38.6878L20.5857 29.6554C20.5285 29.5951 20.4906 29.52 20.4766 29.4391C20.4626 29.3583 20.4731 29.2752 20.5069 29.2001C20.5407 29.1249 20.5962 29.061 20.6668 29.0161C20.7373 28.9712 20.8197 28.9473 20.904 28.9473H25.0347C25.0967 28.9473 25.158 28.9603 25.2145 28.9853C25.2709 29.0103 25.3212 29.0468 25.3619 29.0924L28.2298 32.3029C28.5398 31.6582 29.1398 30.5848 30.1927 29.2768C31.7493 27.343 34.6446 24.4991 39.5981 21.9318C39.6939 21.8822 39.8052 21.8693 39.9103 21.8957C40.0153 21.9221 40.1063 21.9859 40.1654 22.0744C40.2245 22.1629 40.2473 22.2698 40.2293 22.3739C40.2114 22.478 40.1539 22.5717 40.0684 22.6366C40.0495 22.651 38.1396 24.1145 35.9415 26.7951C33.9186 29.262 31.2294 33.2956 29.9062 38.503C29.8829 38.5945 29.8289 38.6757 29.7526 38.7338C29.6763 38.7919 29.5823 38.8235 29.4854 38.8235L29.4856 38.8233Z" fill="white"/>
</svg>
