<svg width="20" height="19" viewBox="0 0 20 19" fill="none" xmlns="http://www.w3.org/2000/svg">
<path d="M10 0C5.85813 0 2.5 3.19022 2.5 7.125C2.5 8.67439 3.03469 10.0961 3.92344 11.2605C3.93938 11.2884 3.94187 11.3195 3.96 11.3463L8.96 18.4713C9.19188 18.8017 9.5825 19 10 19C10.4175 19 10.8081 18.8017 11.04 18.4713L16.04 11.3463C16.0584 11.3195 16.0606 11.2884 16.0766 11.2605C16.9653 10.0961 17.5 8.67439 17.5 7.125C17.5 3.19022 14.1419 0 10 0ZM10 9.5C8.61937 9.5 7.5 8.43659 7.5 7.125C7.5 5.81341 8.61937 4.75 10 4.75C11.3806 4.75 12.5 5.81341 12.5 7.125C12.5 8.43659 11.3806 9.5 10 9.5Z" fill="white"/>
</svg>
